<?xml version="1.0" standalone="no"?>
<!DOCTYPE svg PUBLIC "-//W3C//DTD SVG 20010904//EN"
 "http://www.w3.org/TR/2001/REC-SVG-20010904/DTD/svg10.dtd">
<svg version="1.0" xmlns="http://www.w3.org/2000/svg"
 width="70" height="60" viewBox="0 0 563.000000 393.000000"
 preserveAspectRatio="xMidYMid meet">

<g transform="translate(0.000000,393.000000) scale(0.100000,-0.100000)"
fill="#000000" stroke="none">
<path d="M2178 3425 c-120 -20 -169 -41 -244 -102 -211 -173 -316 -316 -390
-528 -15 -44 -30 -83 -33 -87 -4 -4 -44 4 -90 18 -46 14 -89 23 -95 21 -23 -9
-44 -72 -51 -156 l-7 -83 -60 -72 c-134 -157 -195 -270 -269 -500 -80 -247
-93 -450 -40 -666 47 -196 68 -252 119 -331 128 -195 310 -287 702 -353 52 -9
167 -29 255 -45 158 -29 167 -29 650 -35 461 -6 498 -6 620 13 146 23 167 29
349 95 118 43 138 54 230 128 56 45 104 86 108 91 3 6 43 16 88 23 114 18 186
41 209 65 24 26 49 115 44 159 -4 32 -1 37 41 63 91 57 111 148 52 237 -14 22
-26 48 -26 58 0 27 -57 179 -93 247 -18 33 -60 89 -94 125 l-61 66 50 44 c57
51 86 69 108 70 16 0 236 87 286 113 75 39 134 141 157 274 8 46 8 68 -1 88
-18 39 -32 21 -32 -43 0 -31 -3 -75 -7 -97 -11 -70 -22 -9 -16 92 l6 92 -47 3
c-54 3 -62 20 -14 29 27 5 23 7 -22 8 -68 2 -74 6 -100 61 -28 64 -41 77 -92
100 -25 11 -51 26 -57 34 -20 24 -203 141 -251 161 -25 10 -48 22 -53 25 -4 4
-19 48 -32 100 -49 183 -176 298 -386 352 -72 18 -102 20 -209 15 -151 -7
-188 -17 -330 -97 l-111 -61 -35 30 c-59 53 -137 88 -314 142 -84 25 -109 29
-215 28 -66 -1 -155 -7 -197 -14z m268 -25 c187 -20 369 -100 490 -215 23 -22
84 -178 84 -215 0 -5 -29 8 -65 29 -110 64 -234 86 -490 86 l-210 0 -95 -38
c-125 -51 -199 -94 -212 -123 -6 -13 -9 -27 -5 -30 3 -3 45 12 94 34 249 113
335 131 535 113 230 -20 384 -74 488 -171 l55 -51 -67 6 c-85 8 -224 8 -313 0
-123 -11 -307 -47 -343 -67 -20 -11 -43 -16 -55 -13 -15 4 -18 3 -9 -3 11 -7
10 -11 -4 -16 -9 -3 -26 -4 -38 -1 -12 3 -15 2 -8 -1 7 -3 -18 -21 -60 -41
-40 -20 -74 -39 -76 -44 -2 -5 -9 -9 -17 -9 -7 0 -18 -7 -25 -15 -7 -8 -16
-13 -20 -10 -11 7 -20 -20 -20 -56 0 -36 10 -36 80 0 30 15 121 62 201 104
188 96 231 106 494 111 271 5 423 -21 441 -77 12 -37 -10 -39 -132 -8 -104 26
-143 30 -309 35 -227 7 -246 3 -416 -84 -65 -33 -172 -78 -237 -99 l-117 -39
-5 -45 -6 -46 82 6 c89 6 125 0 106 -19 -6 -6 -51 -14 -99 -17 l-88 -6 -3
-128 c-3 -166 -22 -160 -22 7 l0 123 -37 7 c-21 3 -57 6 -80 6 -24 0 -43 5
-43 10 0 6 33 10 80 10 l80 0 0 40 0 40 -37 -15 c-41 -17 -80 -12 -53 6 11 8
9 9 -9 4 -17 -5 -22 -4 -16 5 5 9 4 11 -4 6 -13 -8 -166 71 -282 147 l-77 49
25 61 c153 381 389 618 653 655 89 13 111 13 216 2z m1188 -59 c109 -39 209
-114 249 -189 20 -37 77 -183 77 -196 0 -2 -26 4 -57 12 -42 12 -118 17 -268
20 -176 3 -233 0 -355 -18 -79 -12 -155 -26 -168 -31 -37 -14 -39 -12 -45 59
-5 49 -16 86 -42 136 -20 38 -34 70 -33 70 2 1 26 20 53 43 113 91 232 125
420 119 78 -3 127 -10 169 -25z m251 -427 c166 -43 271 -80 309 -110 41 -33
46 -47 13 -39 -152 39 -465 42 -590 7 -42 -12 -90 -20 -105 -17 -22 4 -24 4
-7 -4 16 -8 17 -10 4 -10 -9 -1 -53 -12 -98 -24 -44 -13 -81 -21 -81 -17 0 14
-56 62 -96 84 -38 19 -102 82 -93 91 2 2 69 17 149 34 128 26 165 30 320 30
158 1 186 -2 275 -25z m260 -189 c111 -20 210 -49 253 -75 34 -21 45 -48 15
-34 -221 98 -552 121 -803 56 -63 -16 -141 -41 -174 -56 l-58 -26 -25 20 -26
20 34 14 c19 8 55 23 80 34 25 11 104 30 175 42 71 12 131 25 134 27 10 11
307 -6 395 -22z m-1015 -94 c121 -27 208 -60 183 -68 -7 -3 -52 7 -100 21
-150 43 -200 49 -385 44 -140 -4 -184 -9 -229 -25 -86 -32 -190 -79 -259 -118
-48 -27 -73 -35 -113 -35 -29 0 -76 -7 -106 -14 -29 -8 -50 -12 -47 -9 10 10
323 132 471 184 l140 49 160 0 c139 0 177 -4 285 -29z m1020 4 c106 -22 250
-66 250 -78 0 -5 -8 -6 -17 -2 -10 3 -43 13 -73 21 -319 85 -554 71 -814 -49
-85 -40 -89 -40 -102 -22 -13 18 -9 21 58 53 84 38 203 80 268 92 65 13 343 3
430 -15z m-2760 -12 c0 -23 -39 -63 -62 -63 -15 0 -18 5 -12 23 14 48 74 81
74 40z m55 -43 c3 -5 -1 -10 -9 -10 -8 0 -18 5 -21 10 -3 6 1 10 9 10 8 0 18
-4 21 -10z m1620 -10 c33 -5 101 -24 150 -42 l90 -33 -70 -6 c-38 -4 -128 -9
-198 -12 l-129 -4 6 28 c6 30 -5 41 -69 66 -26 10 -19 12 65 12 52 1 122 -3
155 -9z m1144 -20 c11 -6 -6 -9 -54 -9 -61 0 -105 13 -105 31 0 7 142 -12 159
-22z m-2679 -15 c11 -13 10 -14 -4 -9 -9 3 -16 10 -16 15 0 13 6 11 20 -6z
m2195 -4 c-12 -11 -41 -21 -75 -24 l-55 -6 65 24 c80 29 90 30 65 6z m145 15
c0 -2 3 -11 6 -20 4 -11 0 -16 -13 -16 -25 0 -33 8 -26 26 4 12 33 21 33 10z
m-1306 -56 l-27 -40 -70 0 c-39 0 -68 3 -65 6 5 4 174 71 186 74 1 0 -10 -18
-24 -40z m-1194 19 c0 -3 -21 -28 -48 -55 -81 -85 -217 -275 -205 -288 4 -3 2
-6 -4 -6 -6 0 -26 -37 -46 -82 -96 -227 -133 -423 -116 -628 8 -95 41 -237 67
-286 6 -11 22 -43 37 -73 35 -71 57 -100 131 -175 84 -83 116 -106 191 -132
52 -18 63 -20 59 -8 -3 9 -1 12 4 9 18 -11 10 5 -16 35 -15 16 -34 32 -44 35
-12 4 -17 19 -19 57 -3 62 -6 68 -25 42 -14 -18 -15 -18 -21 -1 -4 9 -13 17
-21 17 -19 0 -18 19 3 42 23 26 4 68 -31 68 -15 0 -30 8 -36 19 -13 26 -13 31
4 31 20 0 7 42 -15 47 -12 4 -17 14 -17 34 1 34 -6 44 -22 34 -7 -4 -9 -18 -6
-31 4 -14 2 -24 -4 -24 -5 0 -10 15 -10 33 0 37 -13 62 -28 53 -6 -3 -13 -2
-17 4 -4 6 5 10 19 10 24 0 26 4 26 40 0 30 -4 40 -16 40 -14 0 -16 9 -12 50
3 28 1 53 -3 56 -5 3 -9 -20 -9 -50 0 -31 -4 -56 -10 -56 -6 0 -10 26 -10 59
0 32 -3 86 -6 120 -6 56 -9 61 -30 61 -21 0 -24 5 -24 40 0 29 4 40 15 40 24
0 20 91 -5 120 -22 25 -24 33 -13 44 8 8 32 92 37 131 2 11 7 33 11 50 7 26 9
27 16 10 6 -13 7 -5 5 23 -3 23 0 40 4 37 5 -3 18 11 30 32 35 65 43 76 100
134 58 60 110 88 95 53 -16 -40 -16 -113 -1 -231 17 -131 30 -178 46 -168 5 3
10 47 10 96 0 110 17 230 34 244 8 6 17 26 20 45 11 55 38 165 41 168 2 2 43
-26 93 -62 49 -36 92 -66 96 -66 3 0 14 -7 23 -15 10 -8 69 -50 131 -93 99
-69 117 -86 150 -142 47 -82 141 -156 255 -202 l82 -33 249 -2 c136 -1 250 -4
253 -6 2 -3 -46 -24 -106 -48 -61 -23 -111 -46 -111 -51 0 -26 195 22 316 77
42 19 87 35 100 35 67 0 260 106 298 164 12 18 26 26 49 27 18 1 24 3 14 6
-23 6 -17 25 14 40 16 9 19 13 8 13 -12 0 -16 8 -15 25 0 14 2 25 3 25 0 0 25
-11 55 -25 29 -13 86 -32 126 -41 61 -13 73 -20 78 -39 3 -13 18 -28 32 -34
15 -6 68 -33 117 -61 55 -30 104 -50 125 -51 l35 -1 -30 -8 c-28 -7 -28 -8 -5
-9 14 0 41 3 59 9 19 5 36 8 38 6 2 -2 -22 -11 -54 -20 -32 -10 -74 -22 -93
-28 -31 -10 -287 -28 -294 -20 -2 1 -41 20 -87 42 l-84 40 43 -39 c49 -45 205
-125 272 -140 59 -14 177 -14 185 -1 4 6 10 8 15 5 5 -3 20 0 35 7 23 10 25
14 11 23 -14 10 -12 14 11 24 22 10 24 14 12 22 -9 5 -9 9 -2 9 28 0 23 -31
-7 -43 -8 -3 -1 -5 15 -4 17 1 43 11 58 21 28 19 28 19 54 -5 72 -67 132 -176
148 -270 3 -19 12 -56 20 -82 11 -37 11 -49 2 -52 -422 -138 -483 -150 -757
-149 -333 2 -625 42 -860 120 -108 36 -239 98 -294 138 -86 65 -203 106 -304
106 -101 0 -171 -40 -214 -125 -28 -54 -35 -153 -15 -207 9 -24 19 -65 23 -93
13 -94 138 -186 356 -263 345 -122 1354 -267 1461 -210 42 22 96 71 90 81 -3
6 -2 7 4 4 6 -4 19 0 29 8 10 8 29 15 41 15 18 0 11 -10 -35 -53 -31 -30 -77
-65 -102 -79 -47 -27 -195 -78 -365 -125 l-100 -28 -410 1 c-574 1 -960 29
-1135 83 -36 11 -128 38 -205 61 -185 55 -290 101 -342 153 -85 83 -170 290
-224 547 -12 58 -7 204 12 319 17 106 158 510 181 519 4 2 8 9 8 15 0 7 17 35
38 62 21 28 53 72 71 98 58 85 91 117 117 115 13 -1 24 -5 24 -9z m1364 -6 c4
-9 2 -21 -3 -26 -15 -15 -46 -3 -49 21 -3 18 1 22 21 22 14 0 28 -7 31 -17z
m1678 -15 c-6 -6 -36 -13 -67 -16 -46 -4 -55 -2 -55 12 0 13 12 16 67 16 51 0
64 -3 55 -12z m-2766 -24 c18 -14 18 -14 -6 -3 -31 14 -36 19 -24 19 6 0 19
-7 30 -16z m2464 -4 c0 -5 -16 -10 -36 -10 -21 0 -33 4 -29 10 3 6 19 10 36
10 16 0 29 -4 29 -10z m-150 -10 c0 -8 -19 -13 -95 -24 -16 -2 0 -3 37 -3 55
2 72 -2 97 -21 19 -14 31 -32 31 -46 0 -26 -43 -71 -60 -61 -6 3 -9 1 -8 -5 2
-7 -19 -26 -46 -43 -36 -23 -65 -32 -107 -35 -54 -4 -60 -2 -92 29 -44 43 -70
95 -63 124 5 21 50 44 111 58 11 3 -5 5 -35 6 -82 2 -160 13 -160 22 0 5 88 9
195 9 117 0 195 -4 195 -10z m-2126 -92 c38 -21 72 -38 75 -38 3 0 17 -9 31
-20 18 -13 22 -22 14 -30 -7 -7 -48 15 -140 76 -137 91 -181 126 -99 79 28
-16 81 -46 119 -67z m1334 80 c-7 -20 -48 -23 -48 -4 0 11 9 16 26 16 16 0 24
-5 22 -12z m-108 -7 c0 -15 -27 -20 -122 -23 -88 -2 -105 2 -93 21 8 14 215
15 215 2z m-268 -26 c4 -13 -110 -22 -299 -24 -131 -1 -152 1 -147 14 5 12 35
15 157 17 244 5 287 4 289 -7z m1457 -24 c12 -8 13 -12 1 -26 -22 -26 -52 -38
-102 -42 -56 -3 -61 8 -21 49 21 22 36 28 67 28 23 0 47 -4 55 -9z m-2842 -38
c-3 -10 -5 -4 -5 12 0 17 2 24 5 18 2 -7 2 -21 0 -30z m1038 12 c79 -18 125
-49 125 -84 0 -40 -177 -127 -281 -138 -54 -5 -59 -4 -84 23 -16 17 -24 36
-21 47 2 10 2 16 -2 13 -5 -6 -23 28 -35 70 -8 26 15 53 60 70 45 16 166 16
238 -1z m1100 -70 c13 -44 26 -88 30 -97 8 -21 10 -21 -57 -7 -29 6 -69 22
-89 35 l-35 24 30 65 c30 62 32 64 65 62 34 -2 34 -3 56 -82z m-782 6 c14 -14
0 -44 -19 -37 -8 3 -13 2 -10 -3 8 -12 -70 -42 -89 -35 -29 12 -10 68 28 84
26 10 75 6 90 -9z m1297 -447 c0 0 -10 -9 -22 -20 -12 -10 -18 -13 -13 -5 4 8
2 16 -5 21 -8 5 -3 8 13 7 15 -1 27 -2 27 -3z m-93 -20 c-3 -3 -12 -4 -19 -1
-8 3 -5 6 6 6 11 1 17 -2 13 -5z m-52 -14 c-3 -5 -18 -10 -33 -11 l-27 -1 25
-9 c24 -8 24 -9 -4 -5 -18 2 -35 -3 -46 -14 -16 -16 -21 -16 -68 -1 -32 10
-43 17 -31 19 10 2 32 -3 47 -10 32 -16 53 -13 46 6 -4 10 10 17 43 24 26 5
49 10 51 11 2 0 0 -3 -3 -9z m-2898 -67 c-3 -10 -5 -4 -5 12 0 17 2 24 5 18 2
-7 2 -21 0 -30z m20 -25 c-3 -7 -5 -2 -5 12 0 14 2 19 5 13 2 -7 2 -19 0 -25z
m-26 -65 c-9 -16 -10 -16 -11 4 0 12 3 30 7 40 7 16 8 16 11 -4 2 -12 -1 -30
-7 -40z m1214 -107 c45 -21 89 -56 70 -56 -5 0 0 -10 11 -21 19 -22 19 -22 -4
-10 -13 7 -26 10 -29 8 -3 -3 8 -12 24 -21 15 -8 21 -15 13 -16 -9 0 -25 7
-36 15 -12 8 -23 12 -26 10 -10 -10 -5 30 5 43 7 9 6 17 -2 25 -10 9 -15 8
-27 -7 -12 -17 -14 -18 -14 -3 0 9 -4 17 -10 17 -5 0 -10 -13 -10 -30 0 -16
-5 -30 -11 -30 -7 0 -10 14 -7 35 3 30 1 35 -17 36 -16 1 -16 3 5 8 17 4 4 7
-40 12 l-65 6 60 1 c44 1 73 -4 110 -22z m-183 7 c-6 -2 -10 -9 -6 -14 3 -5 0
-9 -5 -9 -6 0 -11 7 -11 15 0 8 8 15 18 14 10 0 12 -3 4 -6z m-1005 -109 c-1
-58 -4 -98 -6 -88 -2 14 -5 14 -13 3 -8 -11 -9 -11 -5 3 3 9 9 55 13 102 4 47
8 86 10 86 2 0 3 -48 1 -106z m1077 86 c4 -4 -9 -8 -30 -7 -22 0 -30 2 -20 5
15 3 16 6 5 14 -10 6 -7 7 11 3 14 -4 29 -11 34 -15z m-144 -10 c-8 -5 -19
-10 -25 -10 -5 0 -3 5 5 10 8 5 20 10 25 10 6 0 3 -5 -5 -10z m57 -6 c-3 -3
-12 -4 -19 -1 -8 3 -5 6 6 6 11 1 17 -2 13 -5z m133 -25 c0 -11 -4 -18 -10
-14 -5 3 -7 12 -3 20 7 21 13 19 13 -6z m67 -30 c-3 -12 0 -19 8 -19 16 0 134
-59 119 -60 -6 0 -46 16 -90 35 -43 19 -73 35 -66 35 6 0 12 9 12 21 0 12 4
17 11 13 6 -3 9 -15 6 -25z m112 12 c15 -13 18 -22 11 -26 -6 -4 -12 -5 -13
-4 -1 2 -8 14 -15 27 -15 27 -12 28 17 3z m45 -40 c9 -14 -26 -23 -38 -10 -8
9 -8 10 2 5 6 -4 12 -2 12 3 0 13 17 14 24 2z m91 -69 c-2 -2 -13 1 -24 8 -12
6 -21 7 -21 3 0 -15 38 -32 61 -27 l24 5 -23 -10 c-26 -12 -62 1 -80 29 -10
16 -9 18 6 14 16 -5 16 -5 0 9 -34 27 -18 27 21 -1 21 -15 37 -28 36 -30z
m-80 0 c-8 -8 -25 10 -19 20 4 6 9 5 15 -3 4 -7 6 -15 4 -17z m-1408 -14 c-3
-8 -6 -5 -6 6 -1 11 2 17 5 13 3 -3 4 -12 1 -19z m1598 -12 c28 -7 57 -11 65
-8 8 3 12 2 8 -2 -3 -4 -27 -9 -52 -10 -27 -1 -41 1 -34 6 20 12 -29 10 -53
-2 -24 -13 -25 -2 -1 16 9 7 17 13 17 14 0 0 23 -6 50 -14z m1745 -30 c-7 -9
-18 -16 -24 -16 -6 0 -5 4 3 9 25 16 -26 23 -56 8 -15 -8 -39 -17 -53 -21 -14
-3 7 9 45 28 59 28 72 32 84 20 12 -11 12 -16 1 -28z m-3333 2 c-3 -8 -6 -5
-6 6 -1 11 2 17 5 13 3 -3 4 -12 1 -19z m1553 2 c0 -5 -7 -10 -16 -10 -8 0
-12 5 -9 10 3 6 10 10 16 10 5 0 9 -4 9 -10z m113 -10 c-31 -12 -29 -18 10
-30 31 -9 31 -10 -8 -4 -22 3 -44 8 -48 11 -10 6 32 31 53 31 8 1 5 -3 -7 -8z
m176 -26 c7 -7 -52 4 -86 17 -13 5 -23 10 -23 13 0 6 101 -21 109 -30z m-124
16 c-3 -5 -14 -10 -23 -9 -14 0 -13 2 3 9 27 11 27 11 20 0z m1572 -5 c0 -10
-8 -13 -26 -9 -20 4 -22 3 -11 -5 8 -5 11 -13 8 -16 -4 -4 -13 -1 -21 6 -13
12 -12 16 7 26 29 17 43 16 43 -2z m-1472 -25 c18 -7 18 -7 -3 -19 -13 -7 -28
-10 -35 -7 -7 2 -4 5 6 5 33 2 17 21 -17 21 -19 0 -38 5 -41 11 -7 10 48 4 90
-11z m1344 6 c-8 -7 -226 -56 -250 -56 -13 0 -37 -7 -53 -15 -29 -15 -50 -21
-29 -7 6 4 -55 7 -135 6 l-147 -2 155 8 c157 9 258 24 385 58 63 17 87 19 74
8z m-1184 -15 c40 -7 40 -7 -22 -14 -34 -4 -73 -2 -85 3 -17 7 -11 8 22 3 53
-7 50 2 -6 17 l-39 10 45 -6 c25 -3 63 -9 85 -13z m1244 5 c9 -11 6 -16 -19
-24 -18 -7 -30 -7 -30 -1 0 5 10 9 21 9 18 0 19 2 9 15 -7 8 -8 15 -2 15 5 0
15 -6 21 -14z m-1466 -13 c-7 -2 -19 -2 -25 0 -7 3 -2 5 12 5 14 0 19 -2 13
-5z m1407 -3 c0 -5 -7 -10 -16 -10 -8 0 -12 5 -9 10 3 6 10 10 16 10 5 0 9 -4
9 -10z m-1107 -7 c-7 -2 -19 -2 -25 0 -7 3 -2 5 12 5 14 0 19 -2 13 -5z m-203
-13 c0 -5 -2 -10 -4 -10 -3 0 -8 5 -11 10 -3 6 -1 10 4 10 6 0 11 -4 11 -10z
m157 3 c-3 -2 -31 -6 -64 -8 -37 -2 -47 -1 -28 4 35 8 98 11 92 4z m195 -9
c37 -3 66 -10 63 -14 -3 -4 -26 -3 -52 2 -33 8 -52 7 -65 -1 -10 -6 -28 -11
-40 -10 -22 0 -22 1 -3 9 18 7 19 8 3 15 -24 10 -49 -1 -42 -18 5 -14 106 -37
165 -37 19 0 29 -4 24 -9 -14 -12 -205 18 -202 32 1 6 -11 14 -28 18 -28 6
-28 7 -5 8 14 1 32 6 40 11 8 6 29 8 45 6 17 -3 60 -8 97 -12z m913 -19 c-30
-14 -84 -20 -72 -9 7 7 65 22 87 22 8 0 2 -6 -15 -13z m-905 -5 c8 -5 12 -12
9 -15 -8 -8 -39 5 -39 16 0 11 11 11 30 -1z m155 0 c-3 -5 -15 -10 -25 -10
-10 0 -22 5 -25 10 -4 6 7 10 25 10 18 0 29 -4 25 -10z m92 3 c-9 -2 -15 -8
-13 -12 11 -17 -11 -31 -35 -22 -24 10 -24 10 6 12 28 2 28 2 5 7 l-25 5 25 8
c14 4 32 7 40 7 10 0 9 -2 -3 -5z m530 1 c-3 -3 -12 -4 -19 -1 -8 3 -5 6 6 6
11 1 17 -2 13 -5z m-954 -11 c-7 -2 -21 -2 -30 0 -10 3 -4 5 12 5 17 0 24 -2
18 -5z m887 -3 c0 -5 -4 -10 -9 -10 -6 0 -13 5 -16 10 -3 6 1 10 9 10 9 0 16
-4 16 -10z m-323 -6 c-3 -3 -12 -4 -19 -1 -8 3 -5 6 6 6 11 1 17 -2 13 -5z
m173 -4 c18 -12 2 -12 -25 0 -13 6 -15 9 -5 9 8 0 22 -4 30 -9z m245 0 c-11
-5 -29 -8 -40 -8 -16 0 -15 2 5 8 34 11 60 11 35 0z m-75 -9 c0 -11 -25 -21
-51 -21 -29 0 -23 18 9 23 15 2 30 5 35 6 4 0 7 -3 7 -8z m-1652 -8 c-10 -2
-26 -2 -35 0 -10 3 -2 5 17 5 19 0 27 -2 18 -5z m1375 0 c-13 -2 -33 -2 -45 0
-13 2 -3 4 22 4 25 0 35 -2 23 -4z m174 1 c-3 -3 -12 -4 -19 -1 -8 3 -5 6 6 6
11 1 17 -2 13 -5z m-1467 -14 c24 -8 24 -8 -7 -9 -17 -1 -35 4 -38 9 -7 11 9
11 45 0z m-115 -10 c3 -5 1 -10 -4 -10 -6 0 -11 5 -11 10 0 6 2 10 4 10 3 0 8
-4 11 -10z m55 0 c8 -5 11 -10 5 -10 -5 0 -17 5 -25 10 -8 5 -10 10 -5 10 6 0
17 -5 25 -10z m1013 3 c-7 -2 -21 -2 -30 0 -10 3 -4 5 12 5 17 0 24 -2 18 -5z
m222 -4 c12 -18 -1 -20 -81 -13 -62 6 -72 9 -49 15 48 11 123 10 130 -2z m288
4 c-7 -2 -21 -2 -30 0 -10 3 -4 5 12 5 17 0 24 -2 18 -5z m-1367 -43 c1 -46
-14 -40 -21 8 -2 21 1 32 9 32 7 0 12 -16 12 -40z m1292 33 c-10 -2 -28 -2
-40 0 -13 2 -5 4 17 4 22 1 32 -1 23 -4z m-1453 -13 c3 -5 -1 -10 -9 -10 -8 0
-18 5 -21 10 -3 6 1 10 9 10 8 0 18 -4 21 -10z m270 -4 c32 -9 41 -14 25 -15
-14 0 -43 6 -65 14 -51 18 -25 19 40 1z m1088 7 c-13 -2 -33 -2 -45 0 -13 2
-3 4 22 4 25 0 35 -2 23 -4z m-1285 -28 c25 -5 32 -3 32 9 0 9 4 16 9 16 6 0
9 -9 8 -20 -1 -11 -8 -20 -17 -20 -30 0 -90 21 -90 32 0 7 4 7 13 0 6 -5 27
-13 45 -17z m345 -1 c28 -6 29 -8 12 -15 -29 -11 -55 -10 -30 2 14 7 4 8 -37
5 -49 -4 -56 -2 -45 10 12 13 22 13 100 -2z m-190 -1 c-7 -2 -19 -2 -25 0 -7
3 -2 5 12 5 14 0 19 -2 13 -5z m-8 -23 c-3 -5 2 -10 11 -10 10 0 15 -2 12 -5
-3 -3 -19 -2 -37 1 -23 5 -29 9 -19 15 18 12 40 11 33 -1z m283 3 c-10 -2 -26
-2 -35 0 -10 3 -2 5 17 5 19 0 27 -2 18 -5z m-118 -29 c23 4 47 2 54 -3 6 -5
20 -11 31 -14 22 -6 -54 -1 -137 10 -43 5 -48 8 -28 13 14 3 28 2 31 -3 4 -6
25 -7 49 -3z m285 6 c-3 -5 -12 -7 -20 -3 -21 7 -19 13 6 13 11 0 18 -4 14
-10z m1218 -10 c6 -24 -18 -28 -27 -4 -3 8 -2 12 4 9 6 -3 10 -1 10 4 0 18 7
12 13 -9z m27 -5 c0 -14 -2 -25 -4 -25 -2 0 -6 11 -8 25 -3 14 -1 25 3 25 5 0
9 -11 9 -25z m-1192 3 c-3 -7 -22 -14 -44 -14 -24 -1 -29 0 -11 3 15 2 27 9
27 14 0 5 7 9 16 9 9 0 14 -6 12 -12z m175 -5 c-29 -2 -78 -2 -110 0 -32 2 -8
3 52 3 61 0 87 -1 58 -3z m902 -18 c-33 -27 -54 -33 -36 -11 9 11 9 15 -1 19
-7 2 -3 2 10 0 12 -2 22 1 22 7 0 5 8 10 18 10 13 0 10 -6 -13 -25z m-1278 9
c-3 -3 -12 -4 -19 -1 -8 3 -5 6 6 6 11 1 17 -2 13 -5z m518 -4 c3 -5 -3 -10
-14 -10 -12 0 -21 5 -21 10 0 6 6 10 14 10 8 0 18 -4 21 -10z m-452 -7 c-7 -2
-19 -2 -25 0 -7 3 -2 5 12 5 14 0 19 -2 13 -5z m247 -3 c0 -5 -6 -10 -14 -10
-8 0 -18 5 -21 10 -3 6 3 10 14 10 12 0 21 -4 21 -10z m70 0 c12 -8 11 -10 -7
-10 -13 0 -23 5 -23 10 0 13 11 13 30 0z m603 3 c-84 -2 -222 -2 -305 0 -84 1
-16 3 152 3 168 0 236 -2 153 -3z m222 -3 c3 -5 -1 -10 -9 -10 -8 0 -18 5 -21
10 -3 6 1 10 9 10 8 0 18 -4 21 -10z m-1082 -7 c-7 -2 -21 -2 -30 0 -10 3 -4
5 12 5 17 0 24 -2 18 -5z m1217 -8 c0 -9 -9 -15 -25 -15 -22 0 -24 2 -13 15
17 19 38 19 38 0z m-918 -10 c52 -3 89 -1 93 5 3 6 21 10 38 10 l32 -1 -34
-14 c-28 -13 -63 -14 -213 -6 -99 5 -182 12 -185 15 -4 3 36 4 88 1 52 -3 133
-7 181 -10z m441 8 c-7 -2 -21 -2 -30 0 -10 3 -4 5 12 5 17 0 24 -2 18 -5z
m405 -20 c-10 -2 -28 -2 -40 0 -13 2 -5 4 17 4 22 1 32 -1 23 -4z m-695 -10
c-7 -2 -19 -2 -25 0 -7 3 -2 5 12 5 14 0 19 -2 13 -5z m190 0 c-7 -2 -21 -2
-30 0 -10 3 -4 5 12 5 17 0 24 -2 18 -5z m140 0 c-7 -2 -19 -2 -25 0 -7 3 -2
5 12 5 14 0 19 -2 13 -5z m220 0 c-7 -2 -21 -2 -30 0 -10 3 -4 5 12 5 17 0 24
-2 18 -5z m74 1 c-3 -3 -12 -4 -19 -1 -8 3 -5 6 6 6 11 1 17 -2 13 -5z m-2687
-134 c0 -5 -5 -10 -11 -10 -5 0 -7 5 -4 10 3 6 8 10 11 10 2 0 4 -4 4 -10z"/>
<path d="M2658 2833 c7 -3 16 -2 19 1 4 3 -2 6 -13 5 -11 0 -14 -3 -6 -6z"/>
<path d="M2578 2823 c6 -2 18 -2 25 0 6 3 1 5 -13 5 -14 0 -19 -2 -12 -5z"/>
<path d="M2235 2710 c-3 -6 1 -7 9 -4 18 7 21 14 7 14 -6 0 -13 -4 -16 -10z"/>
<path d="M2160 2680 c-8 -5 -12 -11 -10 -14 3 -2 14 2 24 10 22 15 10 19 -14
4z"/>
<path d="M2030 2610 c-12 -7 -10 -9 8 -7 12 0 22 5 22 9 0 11 -12 10 -30 -2z"/>
<path d="M1995 2580 c-3 -6 1 -7 9 -4 21 8 20 -6 -1 -22 -17 -13 -17 -15 2
-29 18 -14 20 -14 27 4 14 39 -17 83 -37 51z"/>
<path d="M1965 2490 c-3 -5 -2 -10 4 -10 5 0 13 5 16 10 3 6 2 10 -4 10 -5 0
-13 -4 -16 -10z"/>
<path d="M3356 2721 c-3 -4 6 -6 19 -3 14 2 25 6 25 8 0 8 -39 4 -44 -5z"/>
<path d="M3434 2095 c8 -8 21 -15 28 -15 8 1 6 6 -6 15 -26 20 -42 19 -22 0z"/>
<path d="M3498 2073 c7 -3 16 -2 19 1 4 3 -2 6 -13 5 -11 0 -14 -3 -6 -6z"/>
<path d="M3425 2060 c-16 -7 -17 -9 -3 -9 9 -1 20 4 23 9 7 11 7 11 -20 0z"/>
<path d="M3618 2043 c7 -3 16 -2 19 1 4 3 -2 6 -13 5 -11 0 -14 -3 -6 -6z"/>
<path d="M3858 1893 c7 -3 16 -2 19 1 4 3 -2 6 -13 5 -11 0 -14 -3 -6 -6z"/>
<path d="M3805 1880 c27 -12 43 -12 25 0 -8 5 -22 9 -30 9 -10 0 -8 -3 5 -9z"/>
<path d="M3688 1863 c7 -3 16 -2 19 1 4 3 -2 6 -13 5 -11 0 -14 -3 -6 -6z"/>
<path d="M2720 1840 c0 -12 8 -12 35 0 18 8 17 9 -7 9 -16 1 -28 -3 -28 -9z"/>
<path d="M2668 1833 c7 -3 16 -2 19 1 4 3 -2 6 -13 5 -11 0 -14 -3 -6 -6z"/>
<path d="M2600 1820 c-18 -12 -2 -12 25 0 13 6 15 9 5 9 -8 0 -22 -4 -30 -9z"/>
<path d="M2538 1813 c6 -2 18 -2 25 0 6 3 1 5 -13 5 -14 0 -19 -2 -12 -5z"/>
<path d="M2458 1803 c7 -3 16 -2 19 1 4 3 -2 6 -13 5 -11 0 -14 -3 -6 -6z"/>
<path d="M2350 1770 c0 -6 7 -10 15 -10 8 0 15 2 15 4 0 2 -7 6 -15 10 -8 3
-15 1 -15 -4z"/>
<path d="M2418 1763 c12 -2 32 -2 45 0 12 2 2 4 -23 4 -25 0 -35 -2 -22 -4z"/>
<path d="M2500 1760 c0 -5 5 -10 11 -10 5 0 7 5 4 10 -3 6 -8 10 -11 10 -2 0
-4 -4 -4 -10z"/>
<path d="M1440 830 c0 -11 8 -24 17 -27 24 -9 56 -43 48 -51 -4 -4 -13 1 -20
12 -12 16 -35 15 -35 -2 0 -8 62 -37 73 -34 4 1 7 -2 7 -7 0 -10 61 -34 68
-26 3 3 -1 5 -9 5 -11 0 -11 2 1 10 12 8 10 10 -8 10 -32 0 -62 18 -62 36 0
17 -43 74 -66 87 -10 6 -14 2 -14 -13z"/>
<path d="M1658 683 c7 -3 16 -2 19 1 4 3 -2 6 -13 5 -11 0 -14 -3 -6 -6z"/>
<path d="M1838 633 c7 -3 16 -2 19 1 4 3 -2 6 -13 5 -11 0 -14 -3 -6 -6z"/>
<path d="M4130 2351 c0 -6 4 -13 10 -16 6 -3 7 1 4 9 -7 18 -14 21 -14 7z"/>
<path d="M2195 1540 c27 -12 43 -12 25 0 -8 5 -22 9 -30 9 -10 0 -8 -3 5 -9z"/>
<path d="M2255 1489 c-12 -18 3 -22 20 -5 14 14 14 16 1 16 -8 0 -18 -5 -21
-11z"/>
<path d="M4300 1326 c0 -2 7 -7 16 -10 8 -3 12 -2 9 4 -6 10 -25 14 -25 6z"/>
</g>
</svg>
